<svg width="55" height="53" viewBox="0 0 55 53" fill="none" xmlns="http://www.w3.org/2000/svg">
<path d="M19 52.5L14.25 44.5L5.25 42.5L6.125 33.25L0 26.25L6.125 19.25L5.25 10L14.25 8L19 0L27.5 3.625L36 0L40.75 8L49.75 10L48.875 19.25L55 26.25L48.875 33.25L49.75 42.5L40.75 44.5L36 52.5L27.5 48.875L19 52.5ZM21.125 46.125L27.5 43.375L34 46.125L37.5 40.125L44.375 38.5L43.75 31.5L48.375 26.25L43.75 20.875L44.375 13.875L37.5 12.375L33.875 6.375L27.5 9.125L21 6.375L17.5 12.375L10.625 13.875L11.25 20.875L6.625 26.25L11.25 31.5L10.625 38.625L17.5 40.125L21.125 46.125ZM24.875 35.125L39 21L35.5 17.375L24.875 28L19.5 22.75L16 26.25L24.875 35.125Z" fill="#E1E3E1"/>
</svg>
